<?xml version="1.0" standalone="no"?><!DOCTYPE svg PUBLIC "-//W3C//DTD SVG 1.1//EN" "http://www.w3.org/Graphics/SVG/1.1/DTD/svg11.dtd"><svg t="1592128252719" class="icon" viewBox="0 0 1024 1024" version="1.1" xmlns="http://www.w3.org/2000/svg" p-id="8153" xmlns:xlink="http://www.w3.org/1999/xlink" width="200" height="200"><defs><style type="text/css"></style></defs><path d="M505.856 296.448c149.504 0 270.848 121.344 270.848 270.848 0 9.728-0.512 19.968-1.536 29.184-30.72 14.336-64 25.6-98.816 33.792-30.72 7.168-63.488 12.288-97.28 14.848-8.192-15.36-24.576-25.6-43.008-25.6H481.792c-26.624 0-48.64 22.016-48.64 48.64s22.016 48.64 48.64 48.64h54.272c19.968 0 37.376-12.288 44.544-29.184 36.352-3.072 71.68-8.192 104.96-15.872 27.648-6.656 53.76-14.336 78.848-24.576-34.304 110.592-137.216 190.976-259.072 190.976-149.504 0-270.848-121.344-270.848-270.848s121.344-270.848 271.36-270.848z m2.048-120.832C399.36 175.616 301.568 219.648 230.4 290.816c-45.568 45.568-79.872 101.888-98.816 165.376H117.76c-31.744 0-57.856 26.112-57.856 57.856V604.16c0 31.744 26.112 57.856 57.856 57.856h75.776V463.872c16.384-49.664 44.032-93.696 80.384-129.536 59.904-59.904 142.848-97.28 234.496-97.28s174.592 36.864 234.496 97.28c34.304 34.304 61.44 76.8 77.824 123.392v204.8H896c31.744 0 57.856-26.112 57.856-57.856v-90.624c0-31.744-26.112-57.856-57.856-57.856h-11.776c-18.944-63.488-53.248-119.808-98.816-165.376-70.656-71.168-168.96-115.2-277.504-115.2z" fill="#231815" p-id="8154"></path></svg>