<?xml version="1.0" standalone="no"?><!DOCTYPE svg PUBLIC "-//W3C//DTD SVG 1.1//EN" "http://www.w3.org/Graphics/SVG/1.1/DTD/svg11.dtd"><svg t="1592102220127" class="icon" viewBox="0 0 1024 1024" version="1.1" xmlns="http://www.w3.org/2000/svg" p-id="3483" xmlns:xlink="http://www.w3.org/1999/xlink" width="200" height="200"><defs><style type="text/css"></style></defs><path d="M865.066 680.366c-29.409-21.845-60.375-42.189-87.163-57.303-44.687-25.19-64.881-28.809-77.483-29.164-17.38-0.478-42.803 5.365-65.195 35.963-10.786 14.746-18.759 31.881-26.487 48.442-2.526 5.434-7.413 15.92-11.619 23.566-10.117-4.519-29.027-14.569-59.065-36.277-36.073-26.037-75.066-59.569-104.052-89.402-28.413-30.857-59.719-71.666-83.763-109.131-20.002-31.198-28.986-50.654-32.932-61.003 7.878-3.769 18.651-8.069 24.331-10.336 16.916-6.772 34.406-13.762 49.67-23.702 31.812-20.657 39.062-45.725 39.54-63.106 0.355-12.589-2.157-32.959-24.821-78.971-13.557-27.511-32.154-59.556-52.361-90.208-15.087-22.883-38.202-55.774-62.587-82.521-29.628-32.495-53.371-47.268-76.977-47.923-54.122-1.502-91.654 45.779-110.128 69.045-22.201 27.962-74.083 100.707-76.049 171.773-1.829 65.781 38.667 150.269 72.963 209.551 45.233 78.179 108.407 162.762 178.012 238.278l22.829 24.126c71.447 73.591 152.385 141.366 227.888 190.846 57.276 37.547 139.373 82.671 205.182 84.486 77.51 2.157 128.71-25.572 152.331-42.271 29.71-21.026 98.973-75.599 100.434-128.15 0.655-23.606-12.78-48.114-43.568-79.503-25.313-25.819-56.894-50.75-78.93-67.106zM871.333 932.816c-20.849 14.746-66.205 39.199-135.796 37.274-59.42-1.652-136.642-44.442-190.97-80.049-73.878-48.401-153.177-114.825-223.396-187.147l-22.323-23.62c-68.171-73.961-130.076-156.822-174.325-233.308-32.535-56.238-70.957-135.714-69.305-195.12 1.747-62.86 49.63-129.707 70.588-156.098 15.278-19.251 47.076-59.296 87.546-58.177 15.374 0.423 33.655 12.834 57.549 39.035 23.211 25.423 45.425 57.071 59.966 79.135 19.606 29.737 37.601 60.73 50.668 87.259 22.582 45.847 22.159 61.126 22.022 66.15-0.45 15.988-9.312 29.395-27.116 40.96-13.025 8.465-29.259 14.964-45.070 21.299-15.961 6.377-30.925 12.575-38.585 18.323l-6.909 5.216 1.761 8.479c1.611 7.796 8.71 31.143 39.635 79.366 24.835 38.735 57.235 80.924 86.903 113.146 30.283 31.17 70.628 65.85 107.916 92.774 46.421 33.559 69.345 41.93 77.033 43.978l8.369 2.225 5.584-6.622c6.172-7.318 13.175-21.914 20.439-37.492 7.154-15.374 14.555-31.252 23.771-43.827 12.533-17.135 26.405-25.245 42.394-24.809 5.024 0.137 20.303 0.56 64.826 25.668 25.833 14.569 55.774 34.242 84.295 55.433 21.259 15.783 51.637 39.745 75.708 64.279 24.835 25.313 36.195 44.265 35.772 59.625-0.942 32.891-46.558 76.663-88.951 106.646z" p-id="3484" fill="#ffffff"></path><path d="M658.996 344.030c23.511 28.017 34.215 62.97 30.119 98.4l26.064 2.99c4.915-42.653-7.891-84.665-36.085-118.266-27.744-33.082-67.188-54.081-111.070-59.133l-2.99 26.064c37.178 4.301 70.547 22.022 93.963 49.943z" p-id="3485" fill="#ffffff"></path><path d="M766.735 255.679c41.028 48.879 59.693 109.827 52.565 171.609l26.064 3.004c7.959-69.004-12.82-137.011-58.518-191.488-45.247-53.945-109.664-88.228-181.385-96.489l-3.004 26.064c65.018 7.509 123.372 38.489 164.277 87.299z" p-id="3486" fill="#ffffff"></path><path d="M912.525 163.642c-70.779-84.364-171.595-137.967-283.893-150.91l-3.004 26.064c105.595 12.192 200.349 62.505 266.8 141.722 66.546 79.312 96.83 178.176 85.265 278.351l26.064 2.99c12.397-107.397-20.002-213.306-91.232-298.217z" p-id="3487" fill="#ffffff"></path></svg>